<mxfile host="app.diagrams.net" agent="Mozilla/5.0 (Windows NT 10.0; Win64; x64) AppleWebKit/537.36 (KHTML, like Gecko) Chrome/131.0.0.0 Safari/537.36" version="25.0.3">
  <diagram name="Page-1" id="qRfLcPHCQGTvtSdoEGWA">
    <mxGraphModel dx="1461" dy="599" grid="1" gridSize="10" guides="1" tooltips="1" connect="1" arrows="1" fold="1" page="1" pageScale="1" pageWidth="850" pageHeight="1100" math="0" shadow="0">
      <root>
        <mxCell id="0" />
        <mxCell id="1" parent="0" />
        <mxCell id="qOs9GECugjmZCHtNQ3uK-43" value="" style="edgeStyle=orthogonalEdgeStyle;rounded=0;orthogonalLoop=1;jettySize=auto;html=1;" edge="1" parent="1" source="qOs9GECugjmZCHtNQ3uK-1" target="qOs9GECugjmZCHtNQ3uK-5">
          <mxGeometry relative="1" as="geometry" />
        </mxCell>
        <mxCell id="qOs9GECugjmZCHtNQ3uK-1" value="" style="ellipse;html=1;shape=startState;fillColor=#000000;strokeColor=#ff0000;" vertex="1" parent="1">
          <mxGeometry x="390" y="10" width="20" height="20" as="geometry" />
        </mxCell>
        <mxCell id="qOs9GECugjmZCHtNQ3uK-2" value="" style="edgeStyle=orthogonalEdgeStyle;html=1;verticalAlign=bottom;endArrow=open;endSize=8;strokeColor=#ff0000;rounded=0;" edge="1" source="qOs9GECugjmZCHtNQ3uK-1" parent="1">
          <mxGeometry relative="1" as="geometry">
            <mxPoint x="400" y="50" as="targetPoint" />
          </mxGeometry>
        </mxCell>
        <mxCell id="qOs9GECugjmZCHtNQ3uK-6" value="" style="edgeStyle=orthogonalEdgeStyle;rounded=0;orthogonalLoop=1;jettySize=auto;html=1;" edge="1" parent="1" source="qOs9GECugjmZCHtNQ3uK-3" target="qOs9GECugjmZCHtNQ3uK-5">
          <mxGeometry relative="1" as="geometry" />
        </mxCell>
        <mxCell id="qOs9GECugjmZCHtNQ3uK-3" value="insert card" style="rounded=1;whiteSpace=wrap;html=1;arcSize=40;fontColor=#000000;fillColor=#ffffc0;strokeColor=#ff0000;" vertex="1" parent="1">
          <mxGeometry x="340" y="50" width="120" height="30" as="geometry" />
        </mxCell>
        <mxCell id="qOs9GECugjmZCHtNQ3uK-8" value="" style="edgeStyle=orthogonalEdgeStyle;rounded=0;orthogonalLoop=1;jettySize=auto;html=1;" edge="1" parent="1" source="qOs9GECugjmZCHtNQ3uK-5" target="qOs9GECugjmZCHtNQ3uK-7">
          <mxGeometry relative="1" as="geometry" />
        </mxCell>
        <mxCell id="qOs9GECugjmZCHtNQ3uK-5" value="select credit&amp;nbsp; card&amp;nbsp;&lt;div&gt;payment&lt;/div&gt;" style="rounded=1;whiteSpace=wrap;html=1;arcSize=40;fontColor=#000000;fillColor=#ffffc0;strokeColor=#ff0000;" vertex="1" parent="1">
          <mxGeometry x="340" y="100" width="120" height="30" as="geometry" />
        </mxCell>
        <mxCell id="qOs9GECugjmZCHtNQ3uK-10" value="" style="edgeStyle=orthogonalEdgeStyle;rounded=0;orthogonalLoop=1;jettySize=auto;html=1;" edge="1" parent="1" source="qOs9GECugjmZCHtNQ3uK-7" target="qOs9GECugjmZCHtNQ3uK-9">
          <mxGeometry relative="1" as="geometry" />
        </mxCell>
        <mxCell id="qOs9GECugjmZCHtNQ3uK-7" value="enter credit card info" style="rounded=1;whiteSpace=wrap;html=1;arcSize=40;fontColor=#000000;fillColor=#ffffc0;strokeColor=#ff0000;" vertex="1" parent="1">
          <mxGeometry x="340" y="150" width="120" height="30" as="geometry" />
        </mxCell>
        <mxCell id="qOs9GECugjmZCHtNQ3uK-12" value="" style="edgeStyle=orthogonalEdgeStyle;rounded=0;orthogonalLoop=1;jettySize=auto;html=1;" edge="1" parent="1" source="qOs9GECugjmZCHtNQ3uK-9" target="qOs9GECugjmZCHtNQ3uK-11">
          <mxGeometry relative="1" as="geometry" />
        </mxCell>
        <mxCell id="qOs9GECugjmZCHtNQ3uK-9" value="verfiy credit card info" style="rounded=1;whiteSpace=wrap;html=1;arcSize=40;fontColor=#000000;fillColor=#ffffc0;strokeColor=#ff0000;" vertex="1" parent="1">
          <mxGeometry x="560" y="150" width="120" height="30" as="geometry" />
        </mxCell>
        <mxCell id="qOs9GECugjmZCHtNQ3uK-14" value="" style="edgeStyle=orthogonalEdgeStyle;rounded=0;orthogonalLoop=1;jettySize=auto;html=1;" edge="1" parent="1" source="qOs9GECugjmZCHtNQ3uK-11" target="qOs9GECugjmZCHtNQ3uK-13">
          <mxGeometry relative="1" as="geometry" />
        </mxCell>
        <mxCell id="qOs9GECugjmZCHtNQ3uK-18" value="" style="edgeStyle=orthogonalEdgeStyle;rounded=0;orthogonalLoop=1;jettySize=auto;html=1;" edge="1" parent="1" source="qOs9GECugjmZCHtNQ3uK-11" target="qOs9GECugjmZCHtNQ3uK-17">
          <mxGeometry relative="1" as="geometry" />
        </mxCell>
        <mxCell id="qOs9GECugjmZCHtNQ3uK-11" value="is num&amp;nbsp;&lt;div&gt;12 digit&lt;/div&gt;" style="rhombus;whiteSpace=wrap;html=1;fillColor=#ffffc0;strokeColor=#ff0000;fontColor=#000000;rounded=1;arcSize=40;" vertex="1" parent="1">
          <mxGeometry x="580" y="200" width="80" height="60" as="geometry" />
        </mxCell>
        <mxCell id="qOs9GECugjmZCHtNQ3uK-16" value="" style="edgeStyle=orthogonalEdgeStyle;rounded=0;orthogonalLoop=1;jettySize=auto;html=1;exitX=0;exitY=0.25;exitDx=0;exitDy=0;entryX=0.25;entryY=1;entryDx=0;entryDy=0;" edge="1" parent="1" source="qOs9GECugjmZCHtNQ3uK-13" target="qOs9GECugjmZCHtNQ3uK-7">
          <mxGeometry relative="1" as="geometry">
            <mxPoint x="410" y="232.60000000000002" as="sourcePoint" />
            <mxPoint x="370" y="190" as="targetPoint" />
            <Array as="points">
              <mxPoint x="420" y="233" />
              <mxPoint x="371" y="233" />
            </Array>
          </mxGeometry>
        </mxCell>
        <mxCell id="qOs9GECugjmZCHtNQ3uK-13" value="invalid number" style="whiteSpace=wrap;html=1;fillColor=#ffffc0;strokeColor=#ff0000;fontColor=#000000;rounded=1;arcSize=40;" vertex="1" parent="1">
          <mxGeometry x="420" y="216.25" width="120" height="27.5" as="geometry" />
        </mxCell>
        <mxCell id="qOs9GECugjmZCHtNQ3uK-20" value="" style="edgeStyle=orthogonalEdgeStyle;rounded=0;orthogonalLoop=1;jettySize=auto;html=1;" edge="1" parent="1">
          <mxGeometry relative="1" as="geometry">
            <mxPoint x="584.0888888888887" y="303.79999999999995" as="sourcePoint" />
            <mxPoint x="549" y="303.79999999999995" as="targetPoint" />
          </mxGeometry>
        </mxCell>
        <mxCell id="qOs9GECugjmZCHtNQ3uK-23" value="" style="edgeStyle=orthogonalEdgeStyle;rounded=0;orthogonalLoop=1;jettySize=auto;html=1;" edge="1" parent="1" source="qOs9GECugjmZCHtNQ3uK-17" target="qOs9GECugjmZCHtNQ3uK-22">
          <mxGeometry relative="1" as="geometry" />
        </mxCell>
        <mxCell id="qOs9GECugjmZCHtNQ3uK-17" value="expire date&amp;gt;&lt;div&gt;now&lt;/div&gt;" style="rhombus;whiteSpace=wrap;html=1;fillColor=#ffffc0;strokeColor=#ff0000;fontColor=#000000;rounded=1;arcSize=40;" vertex="1" parent="1">
          <mxGeometry x="580" y="270" width="80" height="56.25" as="geometry" />
        </mxCell>
        <mxCell id="qOs9GECugjmZCHtNQ3uK-19" value="card expired" style="whiteSpace=wrap;html=1;fillColor=#ffffc0;strokeColor=#ff0000;fontColor=#000000;rounded=1;arcSize=40;" vertex="1" parent="1">
          <mxGeometry x="428" y="290" width="120" height="27.5" as="geometry" />
        </mxCell>
        <mxCell id="qOs9GECugjmZCHtNQ3uK-25" value="" style="edgeStyle=orthogonalEdgeStyle;rounded=0;orthogonalLoop=1;jettySize=auto;html=1;" edge="1" parent="1" source="qOs9GECugjmZCHtNQ3uK-22" target="qOs9GECugjmZCHtNQ3uK-24">
          <mxGeometry relative="1" as="geometry" />
        </mxCell>
        <mxCell id="qOs9GECugjmZCHtNQ3uK-22" value="submit payment" style="whiteSpace=wrap;html=1;fillColor=#ffffc0;strokeColor=#ff0000;fontColor=#000000;rounded=1;arcSize=40;" vertex="1" parent="1">
          <mxGeometry x="560" y="350" width="120" height="31.25" as="geometry" />
        </mxCell>
        <mxCell id="qOs9GECugjmZCHtNQ3uK-27" value="" style="edgeStyle=orthogonalEdgeStyle;rounded=0;orthogonalLoop=1;jettySize=auto;html=1;" edge="1" parent="1" source="qOs9GECugjmZCHtNQ3uK-24" target="qOs9GECugjmZCHtNQ3uK-26">
          <mxGeometry relative="1" as="geometry" />
        </mxCell>
        <mxCell id="qOs9GECugjmZCHtNQ3uK-24" value="accept payment" style="whiteSpace=wrap;html=1;fillColor=#ffffc0;strokeColor=#ff0000;fontColor=#000000;rounded=1;arcSize=40;" vertex="1" parent="1">
          <mxGeometry x="365" y="350" width="120" height="31.25" as="geometry" />
        </mxCell>
        <mxCell id="qOs9GECugjmZCHtNQ3uK-29" value="" style="edgeStyle=orthogonalEdgeStyle;rounded=0;orthogonalLoop=1;jettySize=auto;html=1;" edge="1" parent="1" source="qOs9GECugjmZCHtNQ3uK-26" target="qOs9GECugjmZCHtNQ3uK-28">
          <mxGeometry relative="1" as="geometry" />
        </mxCell>
        <mxCell id="qOs9GECugjmZCHtNQ3uK-33" value="" style="edgeStyle=orthogonalEdgeStyle;rounded=0;orthogonalLoop=1;jettySize=auto;html=1;" edge="1" parent="1" source="qOs9GECugjmZCHtNQ3uK-26" target="qOs9GECugjmZCHtNQ3uK-32">
          <mxGeometry relative="1" as="geometry" />
        </mxCell>
        <mxCell id="qOs9GECugjmZCHtNQ3uK-26" value="success" style="rhombus;whiteSpace=wrap;html=1;fillColor=#ffffc0;strokeColor=#ff0000;fontColor=#000000;rounded=1;arcSize=40;" vertex="1" parent="1">
          <mxGeometry x="383" y="410" width="85" height="43.13" as="geometry" />
        </mxCell>
        <mxCell id="qOs9GECugjmZCHtNQ3uK-31" value="" style="edgeStyle=orthogonalEdgeStyle;rounded=0;orthogonalLoop=1;jettySize=auto;html=1;" edge="1" parent="1" source="qOs9GECugjmZCHtNQ3uK-28" target="qOs9GECugjmZCHtNQ3uK-30">
          <mxGeometry relative="1" as="geometry" />
        </mxCell>
        <mxCell id="qOs9GECugjmZCHtNQ3uK-28" value="log error" style="whiteSpace=wrap;html=1;fillColor=#ffffc0;strokeColor=#ff0000;fontColor=#000000;rounded=1;arcSize=40;" vertex="1" parent="1">
          <mxGeometry x="510" y="421.56" width="117.5" height="20.01" as="geometry" />
        </mxCell>
        <mxCell id="qOs9GECugjmZCHtNQ3uK-30" value="payment error" style="whiteSpace=wrap;html=1;fillColor=#ffffc0;strokeColor=#ff0000;fontColor=#000000;rounded=1;arcSize=40;" vertex="1" parent="1">
          <mxGeometry x="510" y="470.00000000000006" width="117.5" height="20.01" as="geometry" />
        </mxCell>
        <mxCell id="qOs9GECugjmZCHtNQ3uK-35" value="" style="edgeStyle=orthogonalEdgeStyle;rounded=0;orthogonalLoop=1;jettySize=auto;html=1;" edge="1" parent="1" source="qOs9GECugjmZCHtNQ3uK-32" target="qOs9GECugjmZCHtNQ3uK-34">
          <mxGeometry relative="1" as="geometry" />
        </mxCell>
        <mxCell id="qOs9GECugjmZCHtNQ3uK-32" value="update customer acc" style="whiteSpace=wrap;html=1;fillColor=#ffffc0;strokeColor=#ff0000;fontColor=#000000;rounded=1;arcSize=40;" vertex="1" parent="1">
          <mxGeometry x="363.25" y="480" width="124.5" height="20" as="geometry" />
        </mxCell>
        <mxCell id="qOs9GECugjmZCHtNQ3uK-37" value="" style="edgeStyle=orthogonalEdgeStyle;rounded=0;orthogonalLoop=1;jettySize=auto;html=1;" edge="1" parent="1" source="qOs9GECugjmZCHtNQ3uK-34" target="qOs9GECugjmZCHtNQ3uK-36">
          <mxGeometry relative="1" as="geometry" />
        </mxCell>
        <mxCell id="qOs9GECugjmZCHtNQ3uK-34" value="successfull payment" style="whiteSpace=wrap;html=1;fillColor=#ffffc0;strokeColor=#ff0000;fontColor=#000000;rounded=1;arcSize=40;" vertex="1" parent="1">
          <mxGeometry x="363" y="520" width="124.5" height="20" as="geometry" />
        </mxCell>
        <mxCell id="qOs9GECugjmZCHtNQ3uK-36" value="" style="ellipse;html=1;shape=endState;fillColor=#000000;strokeColor=#ff0000;" vertex="1" parent="1">
          <mxGeometry x="410.5" y="570" width="30" height="30" as="geometry" />
        </mxCell>
        <mxCell id="qOs9GECugjmZCHtNQ3uK-38" value="" style="endArrow=classic;html=1;rounded=0;exitX=0.5;exitY=1;exitDx=0;exitDy=0;entryX=1;entryY=0.5;entryDx=0;entryDy=0;" edge="1" parent="1" source="qOs9GECugjmZCHtNQ3uK-30" target="qOs9GECugjmZCHtNQ3uK-36">
          <mxGeometry width="50" height="50" relative="1" as="geometry">
            <mxPoint x="700" y="530" as="sourcePoint" />
            <mxPoint x="750" y="480" as="targetPoint" />
            <Array as="points">
              <mxPoint x="570" y="585" />
            </Array>
          </mxGeometry>
        </mxCell>
        <mxCell id="qOs9GECugjmZCHtNQ3uK-41" value="" style="endArrow=classic;html=1;rounded=0;entryX=0;entryY=0.5;entryDx=0;entryDy=0;exitX=0;exitY=0.5;exitDx=0;exitDy=0;" edge="1" parent="1" source="qOs9GECugjmZCHtNQ3uK-7" target="qOs9GECugjmZCHtNQ3uK-36">
          <mxGeometry width="50" height="50" relative="1" as="geometry">
            <mxPoint x="340" y="158" as="sourcePoint" />
            <mxPoint x="410" y="580" as="targetPoint" />
            <Array as="points">
              <mxPoint x="250" y="165" />
              <mxPoint x="250" y="585" />
            </Array>
          </mxGeometry>
        </mxCell>
        <mxCell id="qOs9GECugjmZCHtNQ3uK-42" value="" style="endArrow=classic;html=1;rounded=0;exitX=0;exitY=0.5;exitDx=0;exitDy=0;" edge="1" parent="1" source="qOs9GECugjmZCHtNQ3uK-19">
          <mxGeometry width="50" height="50" relative="1" as="geometry">
            <mxPoint x="480" y="330" as="sourcePoint" />
            <mxPoint x="370" y="230" as="targetPoint" />
            <Array as="points">
              <mxPoint x="370" y="304" />
            </Array>
          </mxGeometry>
        </mxCell>
        <mxCell id="qOs9GECugjmZCHtNQ3uK-44" value="[no]" style="text;html=1;align=center;verticalAlign=middle;resizable=0;points=[];autosize=1;strokeColor=none;fillColor=none;" vertex="1" parent="1">
          <mxGeometry x="548" y="207" width="40" height="30" as="geometry" />
        </mxCell>
        <mxCell id="qOs9GECugjmZCHtNQ3uK-45" value="[yes]" style="text;html=1;align=center;verticalAlign=middle;resizable=0;points=[];autosize=1;strokeColor=none;fillColor=none;" vertex="1" parent="1">
          <mxGeometry x="615" y="248" width="50" height="30" as="geometry" />
        </mxCell>
        <mxCell id="qOs9GECugjmZCHtNQ3uK-46" value="[yes]" style="text;html=1;align=center;verticalAlign=middle;resizable=0;points=[];autosize=1;strokeColor=none;fillColor=none;" vertex="1" parent="1">
          <mxGeometry x="615" y="318" width="50" height="30" as="geometry" />
        </mxCell>
        <mxCell id="qOs9GECugjmZCHtNQ3uK-47" value="[yes]" style="text;html=1;align=center;verticalAlign=middle;resizable=0;points=[];autosize=1;strokeColor=none;fillColor=none;" vertex="1" parent="1">
          <mxGeometry x="425" y="448" width="50" height="30" as="geometry" />
        </mxCell>
        <mxCell id="qOs9GECugjmZCHtNQ3uK-48" value="[no]" style="text;html=1;align=center;verticalAlign=middle;resizable=0;points=[];autosize=1;strokeColor=none;fillColor=none;" vertex="1" parent="1">
          <mxGeometry x="450" y="408" width="40" height="30" as="geometry" />
        </mxCell>
        <mxCell id="qOs9GECugjmZCHtNQ3uK-49" value="[no]" style="text;html=1;align=center;verticalAlign=middle;resizable=0;points=[];autosize=1;strokeColor=none;fillColor=none;" vertex="1" parent="1">
          <mxGeometry x="550" y="278" width="40" height="30" as="geometry" />
        </mxCell>
        <mxCell id="qOs9GECugjmZCHtNQ3uK-50" value="[cancel]" style="text;html=1;align=center;verticalAlign=middle;resizable=0;points=[];autosize=1;strokeColor=none;fillColor=none;" vertex="1" parent="1">
          <mxGeometry x="243" y="358" width="60" height="30" as="geometry" />
        </mxCell>
      </root>
    </mxGraphModel>
  </diagram>
</mxfile>
